# xmcd
#
# Track frame offsets: 
#        150
#        31925
#        53360
#        91757
#        101160
#        108990
#        118947
#        131127
#        139000
#        158605
#        205032
#        205482
#        211742
#        217617
#        229190
#        254630
#        276157
#
# Disc length: 3994 seconds
#
# Revision: 1
# Processed by: cddbd v1.4PL0 Copyright (c) Steve Scherf et al.
# Submitted via: ExactAudioCopy v0.90b4
#
DISCID=ee0f9811
DTITLE=Art of Noise - Daft
DYEAR=1984
DGENRE=Pop
TTITLE0=Love
TTITLE1=A Time For Fear (Who's Afraid)
TTITLE2=Beatbox (Diversion 1)
TTITLE3=The Army Now
TTITLE4=Donna
TTITLE5=Memento
TTITLE6=How To Kill
TTITLE7=Realisation
TTITLE8=Who's Afraid (Of The Art Of Noise)
TTITLE9=Moments In Love
TTITLE10=Bright Noise
TTITLE11=Flesh In Armour
TTITLE12=Comes And Goes
TTITLE13=Snapshot
TTITLE14=Close (To The Edit)
TTITLE15=(Three Fingers Of) Love
TTITLE16=Close Up (Hop)
EXTD=Japanese Release of the Zang Tumb Tumb compilation WCPR-19
EXTT0=
EXTT1=
EXTT2=
EXTT3=
EXTT4=
EXTT5=
EXTT6=
EXTT7=
EXTT8=
EXTT9=
EXTT10=
EXTT11=
EXTT12=
EXTT13=
EXTT14=
EXTT15=
EXTT16=
PLAYORDER=
